<?xml version="1.0" encoding="utf-8"?>
<!-- Generator: Adobe Illustrator 27.5.0, SVG Export Plug-In . SVG Version: 6.00 Build 0)  -->
<svg version="1.1" id="Capa_1" xmlns="http://www.w3.org/2000/svg" xmlns:xlink="http://www.w3.org/1999/xlink" x="0px" y="0px"
	 viewBox="0 0 425.2 425.2" style="enable-background:new 0 0 425.2 425.2;" xml:space="preserve">
<g>
	<!-- <rect x="0.002" y="0.002" style="fill:#FFFF;" width="425.197" height="425.197"/> -->
</g>
<g>
	<g>
		<path style="fill:#a46167;" d="M336.322,334.733c0,4.57-53.359,8.275-119.186,8.275c-65.822,0-119.182-3.705-119.182-8.275
			s53.359-8.279,119.182-8.279C282.963,326.454,336.322,330.163,336.322,334.733z"/>
		<g>
			<rect x="141.945" y="212.033" style="fill:#B56330;" width="13.068" height="65.692"/>
			<rect x="272.039" y="212.032" style="fill:#B56330;" width="13.063" height="65.688"/>
			<g>
				<rect x="127.062" y="212.033" style="fill:#E89341;" width="180.152" height="19.938"/>
				<rect x="127.062" y="231.972" style="fill:#B56330;" width="180.152" height="1.958"/>
			</g>
			<g>
				<rect x="127.062" y="244.877" style="fill:#E89341;" width="180.152" height="19.936"/>
				<rect x="127.062" y="264.813" style="fill:#B56330;" width="180.152" height="1.956"/>
			</g>
			<rect x="116.283" y="277.726" style="fill:#F59747;" width="201.705" height="20.541"/>
			<rect x="116.283" y="277.726" style="fill:#B56330;" width="201.705" height="7.082"/>
			<g>
				<rect x="123.97" y="298.267" style="fill:#E89341;" width="10.294" height="36.467"/>
				<rect x="300.014" y="298.267" style="fill:#E89341;" width="10.292" height="36.467"/>
			</g>
			<g>
				<rect x="123.97" y="298.267" style="fill:#E89341;" width="10.294" height="3.898"/>
			</g>
		</g>
	</g>
	<g>
		<g>
			<path style="fill:#C5B0A0;" d="M206.682,218.946c0,0,3.26,6.257,0.959,18.196c0,0-13.314,22.59-2.391,33.426
				c0,0,1.551,2.937,2.194,7.345c0,0,0.774,6.428,9.62,6.797c0,0,24.086,5.141,29.778-10.103c0,0,10.103-34.243-6.428-48.301
				c0,0-3.673-4.406-15.01-12.391c0,0-3.269-7.514-11.513-4.825C213.893,209.09,203.438,212.317,206.682,218.946z"/>
			<path style="fill:#E6E7E8;" d="M240.415,226.306c0,0-0.984-1.176-3.487-3.41c1.766,2.529,3.262,5.233,4.518,8.098
				c3.618,8.248,5.395,17.181,5.094,26.22c-0.223,6.627-0.623,13.864-5.087,18.704c-4.507,4.889-9.596,7.401-16.072,7.891
				c-6.031,0.453-12.474-0.51-16.856-5.061c-0.414-0.432-0.793-0.883-1.157-1.344c0.025,0.168,0.053,0.337,0.078,0.51
				c0,0,0.774,6.428,9.62,6.797c0,0,24.086,5.141,29.778-10.103C246.843,274.606,256.945,240.363,240.415,226.306z"/>
			<path style="fill:#b19e93;" d="M207.641,237.143c0,0-0.431,0.724-1.066,1.976c1.61-1.602,3.002-3.476,4.114-5.57
				c2.232-4.189,3.451-8.826,3.396-13.584c-0.029-2.377-0.189-4.605-0.728-6.92c-0.26-1.125-0.619-2.354-0.587-3.542
				c-2.604,1.063-8.664,4.183-6.089,9.444C206.682,218.946,209.941,225.203,207.641,237.143z"/>
			<g>
				<path style="fill:#DEC7B3;" d="M226.277,195.451c-7.676-10.745-20.917-10.608-28.495,0c0,0-11.371,12.674,4.559,21.488
					c0,0,6.176,3.125,9.689,3.855c3.513-0.73,9.69-3.855,9.69-3.855C237.65,208.125,226.277,195.451,226.277,195.451z"/>
				<rect x="210.378" y="215.704" style="fill:#716862;" width="3.515" height="2.542"/>
				<path style="fill:#B5A49C;" d="M220.033,217.766c-2.086,0.98-5.629,2.541-7.979,3.029c-2.354-0.488-5.896-2.05-7.982-3.029
					C204.072,217.766,212.055,217.491,220.033,217.766z"/>
				<g>
					<path style="fill:#FFFFFF;" d="M212.031,215.155c-0.001,2.094-1.968,3.791-4.393,3.791c-2.426-0.002-4.39-1.699-4.39-3.792
						c0-2.094,1.966-3.789,4.393-3.789C210.066,211.365,212.031,213.063,212.031,215.155z"/>
					<path style="fill:#FFFFFF;" d="M220.824,215.159c0,2.092-1.967,3.789-4.393,3.789c-2.425,0-4.39-1.699-4.39-3.793
						c0-2.092,1.968-3.788,4.392-3.788C218.859,211.367,220.826,213.065,220.824,215.159z"/>
					<path style="fill:#F26B71;" d="M213.816,212.054h-1.773h-1.774c0,0-1.214,0.354-0.738,1.329l1.893,1.419
						c0,0,0.266,0.265,0.62,0.354c0.353-0.089,0.62-0.354,0.62-0.354l1.893-1.418C215.032,212.409,213.816,212.054,213.816,212.054z
						"/>
				</g>
				<g>
					<g>
						<path style="fill:#FFFFFF;" d="M206.368,192.852c0.052,1.182-0.092-6.735-8.806-9.208c0,0-1.954-0.833-2.669,1.288
							c0,0-3.523,6.748,1.738,12.409C196.632,197.342,202.504,198.364,206.368,192.852z"/>
						<path style="fill:#DEC7B3;" d="M206.368,192.852c0.052,1.182-0.092-6.735-8.806-9.208c0,0-1.954-0.833-2.669,1.288
							c0,0-3.523,6.748,1.738,12.409C196.632,197.342,202.504,198.364,206.368,192.852z"/>
						<path style="fill:#F5AA92;" d="M205.258,193.246c0.04,0.928-0.074-5.289-6.914-7.233c0,0-1.533-0.653-2.095,1.013
							c0,0-2.767,5.303,1.364,9.746C197.613,196.771,202.223,197.573,205.258,193.246z"/>
						<path style="fill:#D1D3D4;" d="M204.669,192.957c-0.732,1.523-2.345,2.689-4.039,2.792c-1.917,0.115-2.977-1.464-3.39-3.131
							c-0.293-1.186-0.633-2.75-0.092-3.922c0.592-1.279,1.567-1.646,2.819-2.088c-0.496-0.225-1.032-0.427-1.624-0.596
							c0,0-1.533-0.653-2.095,1.013c0,0-2.767,5.303,1.364,9.746c0,0,4.601,0.799,7.637-3.514c-0.027-0.167-0.098-0.589-0.284-1.155
							C204.896,192.395,204.8,192.683,204.669,192.957z"/>
					</g>
				</g>
				<g>
					<g>
						<path style="fill:#FFFFFF;" d="M217.737,192.852c-0.054,1.182,0.091-6.735,8.804-9.208c0,0,1.951-0.833,2.669,1.288
							c0,0,3.524,6.748-1.738,12.409C227.472,197.342,221.6,198.364,217.737,192.852z"/>
						<path style="fill:#DEC7B3;" d="M217.737,192.852c-0.054,1.182,0.091-6.735,8.804-9.208c0,0,1.951-0.833,2.669,1.288
							c0,0,3.524,6.748-1.738,12.409C227.472,197.342,221.6,198.364,217.737,192.852z"/>
						<path style="fill:#F5AA92;" d="M218.846,193.246c-0.039,0.928,0.072-5.289,6.915-7.233c0,0,1.535-0.653,2.096,1.013
							c0,0,2.768,5.303-1.362,9.746C226.494,196.771,221.881,197.573,218.846,193.246z"/>
						<path style="fill:#D1D3D4;" d="M219.439,192.957c0.729,1.523,2.341,2.689,4.036,2.792c1.918,0.115,2.975-1.464,3.393-3.131
							c0.293-1.186,0.63-2.75,0.088-3.922c-0.588-1.279-1.567-1.646-2.818-2.088c0.496-0.225,1.033-0.427,1.624-0.596
							c0,0,1.535-0.653,2.096,1.013c0,0,2.768,5.303-1.362,9.746c0,0-4.603,0.799-7.639-3.514c0.023-0.167,0.097-0.589,0.281-1.155
							C219.209,192.395,219.303,192.683,219.439,192.957z"/>
					</g>
				</g>
				<g>
					<path style="fill:#DEC7B3;" d="M193.945,203.759c0,0,2.176-1.854,5.553-0.537c0,0-3.374-0.952-5.647,2.148
						C193.851,205.37,193.752,204.883,193.945,203.759z"/>
					<path style="fill:#DEC7B3;" d="M194.013,207.096c0,0,0.177,0.948,0.383,1.512c0,0,1.981-1.77,4.896-2
						C199.291,206.607,197.411,205.102,194.013,207.096z"/>
					<path style="fill:#DEC7B3;" d="M195.121,210.28c0,0,0.646,1.09,0.883,1.398c0,0,3.211-0.43,4.053-3.071
						C200.057,208.607,196.949,211.365,195.121,210.28z"/>
				</g>
				<g>
					<path style="fill:#DEC7B3;" d="M230.158,203.759c0,0-2.177-1.854-5.551-0.537c0,0,3.374-0.952,5.646,2.148
						C230.254,205.37,230.354,204.883,230.158,203.759z"/>
					<path style="fill:#DEC7B3;" d="M230.094,207.096c0,0-0.178,0.948-0.385,1.512c0,0-1.982-1.77-4.895-2
						C224.814,206.607,226.696,205.102,230.094,207.096z"/>
					<path style="fill:#DEC7B3;" d="M228.984,210.28c0,0-0.646,1.09-0.881,1.398c0,0-3.215-0.43-4.057-3.071
						C224.047,208.607,227.156,211.365,228.984,210.28z"/>
				</g>
				<g>
					<g>
						<path style="fill:#FFFFFF;" d="M198.656,204.792c0.18-2.662,3.594-4.337,5.299-4.297c1.703-0.04,5.119,1.635,5.297,4.297
							c-0.178,2.663-3.594,4.338-5.297,4.296C202.25,209.13,198.836,207.455,198.656,204.792z"/>
						<g>
							<path style="fill:#A7A9AC;" d="M207.444,204.792c0,1.928-1.561,3.49-3.489,3.49c-1.929,0-3.49-1.563-3.49-3.49
								c0-1.927,1.561-3.491,3.49-3.491C205.884,201.301,207.444,202.865,207.444,204.792z"/>
							<path style="fill:#00B9C5;" d="M206.998,204.792c0,1.684-1.363,3.045-3.043,3.045c-1.684,0-3.044-1.361-3.044-3.045
								c0-1.681,1.36-3.045,3.044-3.045C205.635,201.747,206.998,203.111,206.998,204.792z"/>
							<path style="fill:#161E28;" d="M205.84,204.792c0,1.041-0.844,1.886-1.885,1.886s-1.887-0.845-1.887-1.886
								c0-1.041,0.846-1.886,1.887-1.886S205.84,203.751,205.84,204.792z"/>
							<g>
								<path style="fill:#FFFFFF;" d="M203.012,203.577c0,0.521-0.42,0.943-0.943,0.943c-0.521,0-0.94-0.422-0.94-0.943
									c0-0.523,0.419-0.943,0.94-0.943C202.592,202.634,203.012,203.054,203.012,203.577z"/>
								<path style="fill:#FFFFFF;" d="M203.736,204.684c0,0.259-0.207,0.468-0.467,0.468c-0.258,0-0.466-0.209-0.466-0.468
									c0-0.259,0.208-0.469,0.466-0.469C203.529,204.215,203.736,204.425,203.736,204.684z"/>
							</g>
						</g>
					</g>
					<g>
						<path style="fill:#FFFFFF;" d="M225.405,204.792c-0.18-2.662-3.593-4.337-5.298-4.297c-1.705-0.04-5.119,1.635-5.296,4.297
							c0.177,2.663,3.594,4.338,5.296,4.296C221.813,209.13,225.226,207.455,225.405,204.792z"/>
						<g>
							<path style="fill:#A7A9AC;" d="M216.617,204.792c0,1.928,1.561,3.49,3.49,3.49c1.926,0,3.49-1.563,3.49-3.49
								c0-1.927-1.564-3.491-3.49-3.491C218.178,201.301,216.617,202.865,216.617,204.792z"/>
							<path style="fill:#00B9C5;" d="M217.064,204.792c0,1.684,1.361,3.045,3.043,3.045c1.682,0,3.043-1.361,3.043-3.045
								c0-1.681-1.361-3.045-3.043-3.045C218.426,201.747,217.064,203.111,217.064,204.792z"/>
							<path style="fill:#161E28;" d="M218.222,204.792c0,1.041,0.842,1.886,1.886,1.886c1.041,0,1.885-0.845,1.885-1.886
								c0-1.041-0.844-1.886-1.885-1.886C219.064,202.906,218.222,203.751,218.222,204.792z"/>
							<g>
								<path style="fill:#FFFFFF;" d="M221.05,203.577c0,0.521,0.422,0.943,0.942,0.943c0.521,0,0.943-0.422,0.943-0.943
									c0-0.523-0.422-0.943-0.943-0.943C221.472,202.634,221.05,203.054,221.05,203.577z"/>
								<path style="fill:#FFFFFF;" d="M220.324,204.684c0,0.259,0.209,0.468,0.467,0.468c0.259,0,0.469-0.209,0.469-0.468
									c0-0.259-0.21-0.469-0.469-0.469C220.533,204.215,220.324,204.425,220.324,204.684z"/>
							</g>
						</g>
					</g>
				</g>
			</g>
			<g>
				<g>
					<path style="fill:#C5B0A0;" d="M197.258,266.696c-6.762,2.313-10.697,8.219-10.146,15.388
						c0.634,8.265,7.822,13.195,15.133,15.373c8.035,2.394,17.328,0.985,24.401-3.387c3.538-2.187,5.703-5.614,6.954-9.491
						c1.408-4.363-1.164-8.974-2.886-12.813c-1.815-4.046-7.749-0.541-5.947,3.477c1.451,3.235,3.118,5.993,1.43,9.521
						c-1.081,2.26-3.216,3.554-5.335,4.685c-4.186,2.235-9.507,2.586-14.123,1.94c-4.57-0.639-9.439-2.706-11.877-6.793
						c-2.523-4.231-0.238-9.731,4.229-11.26C203.266,271.908,201.473,265.255,197.258,266.696L197.258,266.696z"/>
				</g>
			</g>
		</g>
	</g>
	<g>
		<path style="fill:#a46167;" d="M299.139,351.892c0,2.55-14.909,4.616-33.304,4.616c-18.392,0-33.301-2.066-33.301-4.616
			c0-2.549,14.909-4.616,33.301-4.616C284.229,347.276,299.139,349.344,299.139,351.892z"/>
		<g>
			
				<path style="fill:none;stroke:#574B50;stroke-width:4.7285;stroke-linecap:round;stroke-linejoin:round;stroke-miterlimit:10;" d="
				M247.145,336.335c-5.995-1.313-11.313-8.499-7.93-17.491c2.9-7.709,8.01-12.692,7.762-17.168
				c-0.175-3.143-2.439-4.855-5.398-4.855c-3.283-0.004-5.054,2.556-6.421,5.232"/>
			<g>
				<path style="fill:#4A4044;" d="M257.512,351.259c-1.547,0-18.588,2.336-20.649-0.564c-2.059-2.9,11.637-4.955,10.911-7.109
					c-3.059-9.063-7.064-13.491-6.558-21.597c0.471-7.507,3.695-9.999,9.099-8.256C256.043,315.579,263.531,351.259,257.512,351.259
					z"/>
				<path style="fill:#4A4044;" d="M275.555,351.006c1.545,0,18.584,2.331,20.648-0.566c2.06-2.901-11.64-4.954-10.91-7.108
					c3.058-9.063,7.064-13.491,6.556-21.599c-0.471-7.509-3.693-9.998-9.098-8.255C277.02,315.324,269.535,351.006,275.555,351.006z
					"/>
				<path style="fill:#574B50;" d="M284.428,317.79c0.695,7.293,1.152,31.892-3.32,33.26c-3.754,1.146-15.702,1.995-25.049-0.979
					c-6.762-2.151-6.686-18.602-6.775-34.264c-0.063-10.965,6.199-30.531,18.14-30.531
					C279.363,285.276,283.284,305.773,284.428,317.79z"/>
				<path style="fill:#E0CDC4;" d="M275.537,306.571c0,0,5.875,34.773,2.796,40.845c-5.627,5.427-15.885,5.427-22.161-1.223
					c-2.875-5.723,2.867-18.18,0.67-32.05l3.594-4.499l4.555,5.391l2.085,1.609L275.537,306.571z"/>
				<path style="fill:#574B50;" d="M265.814,352.35c0,0,11.227,2.335,12.133,0.184c0.278-0.647,0.654-7.399-3.295-5.523
					c-1.782-2.472-3.563-5.004-3.268-5.909c2.316-7.164,6.828-24.861,7.883-30.645c1.369-7.518-11.334-2.97-12.334,4.579
					c-0.777,5.868,1.033,20.034,0.627,27.525C265.408,344.434,265.814,352.35,265.814,352.35z"/>
				<path style="fill:#574B50;" d="M269.797,350.763c0,0-10.752,4.391-13.238,0c-1.396-2.465,4.272-8.757,3.978-9.662
					c-2.313-7.164-6.856-22.752-7.909-28.537c-1.37-7.518,11.361-5.077,12.363,2.472c0.777,5.868-1.033,20.034-0.627,27.525
					C266.513,344.434,269.797,350.763,269.797,350.763z"/>
				<g>
					<path style="fill:#574B50;" d="M275.687,352.843c0,0.676,0.481,1.223,1.075,1.223h1.146c0.594,0,1.074-0.547,1.074-1.223
						l-0.65-5.427c0-0.676-0.481-1.223-1.074-1.223h-0.497c-0.594,0-1.075,0.547-1.075,1.223V352.843z"/>
					<path style="fill:#574B50;" d="M272.706,352.843c0,0.676,0.481,1.223,1.075,1.223h1.145c0.595,0,1.072-0.547,1.072-1.223
						v-5.427c0-0.676-0.478-1.223-1.072-1.223h-1.145c-0.594,0-1.075,0.547-1.075,1.223V352.843z"/>
					<path style="fill:#574B50;" d="M269.411,352.843c0,0.676,0.479,1.223,1.077,1.223h1.143c0.596,0,1.075-0.547,1.075-1.223
						v-5.427c0-0.676-0.479-1.223-1.075-1.223h-0.503c-0.593,0-1.074,0.547-1.074,1.223L269.411,352.843z"/>
				</g>
				<path style="fill:#3A3134;" d="M278.336,348.582c0-0.674-0.482-1.223-1.074-1.223h-0.5c-0.397,0-0.73,0.259-0.918,0.625
					c-0.185-0.366-0.518-0.625-0.918-0.625h-1.143c-0.596,0-1.077,0.549-1.077,1.223c0-0.674-0.479-1.223-1.075-1.223h-0.5
					c-0.594,0-1.074,0.549-1.074,1.223l-0.26,2.181l0.26-3.347c0-0.676,0.48-1.223,1.074-1.223h0.5c0.596,0,1.075,0.547,1.075,1.223
					c0-0.676,0.481-1.223,1.077-1.223h1.143c0.4,0,0.733,0.261,0.918,0.625c0.188-0.364,0.521-0.625,0.918-0.625h0.5
					c0.592,0,1.074,0.547,1.074,1.223l0.26,3.352L278.336,348.582z"/>
				<g>
					<path style="fill:#574B50;" d="M262.448,352.843c0,0.676,0.481,1.223,1.076,1.223h1.146c0.594,0,1.072-0.547,1.072-1.223
						l-0.648-5.427c0-0.676-0.48-1.223-1.072-1.223h-0.497c-0.595,0-1.076,0.547-1.076,1.223V352.843z"/>
					<path style="fill:#574B50;" d="M259.469,352.843c0,0.676,0.484,1.223,1.074,1.223h1.145c0.596,0,1.076-0.547,1.076-1.223
						v-5.427c0-0.676-0.48-1.223-1.076-1.223h-1.145c-0.59,0-1.074,0.547-1.074,1.223V352.843z"/>
					<path style="fill:#574B50;" d="M256.172,352.843c0,0.676,0.484,1.223,1.074,1.223h1.148c0.594,0,1.074-0.547,1.074-1.223
						v-5.427c0-0.676-0.48-1.223-1.074-1.223h-0.504c-0.592,0-1.074,0.547-1.074,1.223L256.172,352.843z"/>
				</g>
				<path style="fill:#3A3134;" d="M265.098,348.582c0-0.674-0.482-1.223-1.076-1.223h-0.497c-0.397,0-0.732,0.259-0.918,0.625
					c-0.185-0.366-0.521-0.625-0.919-0.625h-1.142c-0.592,0-1.076,0.549-1.076,1.223c0-0.674-0.48-1.223-1.072-1.223h-0.506
					c-0.591,0-1.074,0.549-1.074,1.223l-0.258,2.181l0.258-3.347c0-0.676,0.483-1.223,1.074-1.223h0.506
					c0.592,0,1.072,0.547,1.072,1.223c0-0.676,0.484-1.223,1.076-1.223h1.142c0.398,0,0.734,0.261,0.919,0.625
					c0.186-0.364,0.521-0.625,0.918-0.625h0.497c0.594,0,1.076,0.547,1.076,1.223l0.26,3.352L265.098,348.582z"/>
			</g>
			<g>
				<path style="fill:#574B50;" d="M242.358,281.788c0,9.395,11.4,17.009,25.462,17.009c14.064,0,25.465-7.614,25.465-17.009
					c0-9.396-11.4-17.008-25.465-17.008C253.758,264.78,242.358,272.392,242.358,281.788z"/>
				<g>
					<path style="fill:#574B50;" d="M286.924,272.217c2.119-4.126,0.616-11.664-0.548-12.263c-1.163-0.596-7.202,2.893-9.389,7.156
						L286.924,272.217z"/>
					<path style="fill:#E77966;" d="M286.529,271.88c2.119-4.124,0.434-9.876-0.73-10.473c-1.164-0.601-3.045,1.173-5.234,5.434
						l0.777,0.659l3.15-1.449l-2.004,2.363l1.564-0.767v1.605L286.529,271.88z"/>
				</g>
				<g>
					<path style="fill:#574B50;" d="M248.85,272.217c-2.121-4.126-0.619-11.664,0.543-12.263c1.166-0.596,7.205,2.893,9.394,7.156
						L248.85,272.217z"/>
					<path style="fill:#E77966;" d="M249.244,271.88c-2.121-4.124-0.434-9.876,0.73-10.473c1.162-0.601,3.046,1.173,5.232,5.434
						l-0.776,0.659l-3.148-1.449l2.004,2.363l-1.565-0.767v1.605L249.244,271.88z"/>
				</g>
				<g>
					<path style="fill:#DF7467;" d="M264.18,282.388c0,0,0.115,1.056,1.658,1.626c1.051,0.392,1.656,0.871,1.656,0.871
						s-0.51-2.649-1.508-2.649C264.988,282.235,264.18,282.388,264.18,282.388z"/>
					<path style="fill:#DF7467;" d="M271.289,282.388c0,0-0.117,1.056-1.657,1.626c-1.054,0.392-1.659,0.871-1.659,0.871
						s0.51-2.649,1.507-2.649C270.479,282.235,271.289,282.388,271.289,282.388z"/>
					<path style="fill:#DE6658;" d="M264.18,282.388c0,0.32,1.611,0.311,2.469,1.021c0.92,0.76,0.424,1.629,1.147,1.629
						c0.724,0,0.617-0.898,1.506-1.629c0.887-0.728,1.988-0.689,1.988-1.021c0-0.664-1.592-1.206-3.553-1.206
						C265.773,281.182,264.18,281.724,264.18,282.388z"/>
					<path style="fill:#FFFFFF;" d="M267.346,281.83c0,0.226,0.396,0.405,0.887,0.405c0.489,0,0.885-0.18,0.885-0.405
						c0-0.225-0.395-0.406-0.885-0.406C267.741,281.424,267.346,281.605,267.346,281.83z"/>
				</g>
				<g>
					<path style="fill:#453B3F;" d="M253.421,275.178c0,0-1.319,3.113,2.275,4.944c3.896,1.986,7.59,0.282,7.59,0.282
						s-1.07-6.071-3.926-7.172C256.506,272.128,253.421,275.178,253.421,275.178z"/>
					<path style="fill:#FCE24B;" d="M253.421,275.178c0,0-1.319,3.113,2.275,4.944c3.896,1.986,7.59,0.282,7.59,0.282
						s-1.43-5.014-4.287-6.116C256.145,273.186,253.421,275.178,253.421,275.178z"/>
					<path style="fill:#2D2932;" d="M255.188,277.284c-0.069,1.147,0.226,2.203,0.715,2.941c0.566,0.37,2.236,0.833,2.688,0.789
						c0.984-0.507,1.638-1.794,1.734-3.418c0.074-1.2-0.229-2.293-0.764-3.034c-0.419-0.336-1.717-0.707-2.801-0.588
						C255.908,274.569,255.277,275.813,255.188,277.284z"/>
					<path style="fill:#201C25;" d="M256.858,277.325c-0.209,1.492,0.392,2.805,0.392,2.805s0.935-1.101,1.143-2.589
						c0.205-1.491-0.391-2.807-0.391-2.807S257.065,275.837,256.858,277.325z"/>
					<path style="fill:#FFFFFF;" d="M257.661,276.657c0,0.329-0.263,0.594-0.592,0.594c-0.325,0-0.591-0.265-0.591-0.594
						c0-0.326,0.266-0.591,0.591-0.591C257.398,276.066,257.661,276.331,257.661,276.657z"/>
					<path style="fill:#FFFFFF;" d="M257.622,275.32c0,0.225-0.179,0.406-0.405,0.406c-0.225,0-0.404-0.182-0.404-0.406
						c0-0.226,0.18-0.407,0.404-0.407C257.443,274.913,257.622,275.095,257.622,275.32z"/>
				</g>
				<g>
					<path style="fill:#453B3F;" d="M281.764,275.178c0,0,1.32,3.113-2.273,4.944c-3.896,1.986-7.59,0.282-7.59,0.282
						s1.068-6.071,3.923-7.172C278.682,272.128,281.764,275.178,281.764,275.178z"/>
					<path style="fill:#FCE24B;" d="M281.764,275.178c0,0,1.32,3.113-2.273,4.944c-3.896,1.986-7.59,0.282-7.59,0.282
						s1.432-5.014,4.286-6.116C279.041,273.186,281.764,275.178,281.764,275.178z"/>
					<path style="fill:#2D2932;" d="M279.996,277.284c0.071,1.147-0.222,2.203-0.71,2.941c-0.569,0.37-2.239,0.833-2.691,0.789
						c-0.983-0.507-1.635-1.794-1.735-3.418c-0.07-1.2,0.23-2.293,0.765-3.034c0.417-0.336,1.718-0.707,2.8-0.588
						C279.277,274.569,279.91,275.813,279.996,277.284z"/>
					<path style="fill:#201C25;" d="M278.328,277.325c0.209,1.492-0.391,2.805-0.391,2.805s-0.938-1.101-1.142-2.589
						c-0.209-1.491,0.395-2.807,0.395-2.807S278.121,275.837,278.328,277.325z"/>
					<path style="fill:#FFFFFF;" d="M277.522,276.657c0,0.329,0.265,0.594,0.594,0.594c0.327,0,0.593-0.265,0.593-0.594
						c0-0.326-0.266-0.591-0.593-0.591C277.787,276.066,277.522,276.331,277.522,276.657z"/>
					<path style="fill:#FFFFFF;" d="M277.563,275.32c0,0.225,0.182,0.406,0.404,0.406c0.226,0,0.41-0.182,0.41-0.406
						c0-0.226-0.185-0.407-0.41-0.407C277.744,274.913,277.563,275.095,277.563,275.32z"/>
				</g>
				<g>
					<g>
						<path style="fill:#453B3F;" d="M272.627,289.271c0,0-0.41,0.399-1.168,0.782c-0.383,0.183-0.844,0.379-1.413,0.45
							c-0.282,0.022-0.608,0.051-0.96-0.12c-0.196-0.101-0.295-0.206-0.396-0.28c-0.105-0.086-0.229-0.209-0.335-0.316
							c-0.414-0.455-0.67-1.055-0.732-1.601c-0.076-0.545-0.039-1.035-0.01-1.448c0.083-0.826,0.168-1.371,0.168-1.371
							s0.021,0.137,0.059,0.376c0.028,0.239,0.068,0.581,0.115,0.991c0.093,0.806,0.176,1.918,0.902,2.577
							c0.09,0.084,0.16,0.156,0.267,0.24c0.115,0.088,0.217,0.174,0.266,0.188c0.143,0.059,0.37,0.085,0.594,0.067
							c0.454-0.031,0.914-0.134,1.303-0.226C272.091,289.395,272.627,289.271,272.627,289.271z"/>
					</g>
				</g>
				<g>
					<g>
						<path style="fill:#453B3F;" d="M262.782,289.271c0,0,0.544,0.142,1.36,0.353c0.396,0.099,0.863,0.208,1.328,0.23
							c0.232,0.018,0.461-0.014,0.638-0.076c0.045-0.015,0.088-0.037,0.122-0.058l0.176-0.114c0.123-0.078,0.188-0.145,0.284-0.222
							c0.764-0.626,0.826-1.799,0.919-2.618c0.047-0.42,0.086-0.77,0.113-1.015c0.037-0.245,0.059-0.386,0.059-0.386
							s0.084,0.559,0.171,1.404c0.032,0.423,0.07,0.924-0.003,1.482c-0.062,0.557-0.323,1.184-0.783,1.635
							c-0.117,0.104-0.259,0.23-0.371,0.303l-0.172,0.118c-0.082,0.054-0.162,0.099-0.247,0.132
							c-0.337,0.147-0.669,0.134-0.958,0.111c-0.586-0.063-1.061-0.268-1.452-0.459
							C263.191,289.691,262.782,289.271,262.782,289.271z"/>
					</g>
				</g>
				<path style="fill:#453B3F;" d="M265.627,287.33c0,0.123,0.102,0.223,0.226,0.223c0.126,0,0.225-0.1,0.225-0.223
					c0-0.128-0.099-0.227-0.225-0.227C265.729,287.103,265.627,287.202,265.627,287.33z"/>
				<path style="fill:#453B3F;" d="M264.449,288.31c0,0.232,0.188,0.417,0.42,0.417c0.228,0,0.415-0.186,0.415-0.417
					c0-0.23-0.187-0.418-0.415-0.418C264.637,287.892,264.449,288.08,264.449,288.31z"/>
				<path style="fill:#453B3F;" d="M264.414,287.33c0,0.123,0.102,0.223,0.229,0.223c0.123,0,0.227-0.1,0.227-0.223
					c0-0.128-0.104-0.227-0.227-0.227C264.516,287.103,264.414,287.202,264.414,287.33z"/>
				<path style="fill:#453B3F;" d="M264.98,286.44c0,0.086,0.068,0.154,0.153,0.154c0.083,0,0.152-0.068,0.152-0.154
					c0-0.084-0.069-0.153-0.152-0.153C265.049,286.287,264.98,286.356,264.98,286.44z"/>
				<path style="fill:#453B3F;" d="M263.548,286.797c0,0.112,0.092,0.205,0.204,0.205c0.111,0,0.203-0.093,0.203-0.205
					c0-0.111-0.092-0.202-0.203-0.202C263.64,286.595,263.548,286.685,263.548,286.797z"/>
				<path style="fill:#453B3F;" d="M263.285,288.122c0,0.131,0.107,0.234,0.232,0.234c0.129,0,0.234-0.104,0.234-0.234
					c0-0.125-0.105-0.23-0.234-0.23C263.393,287.892,263.285,287.997,263.285,288.122z"/>
				<path style="fill:#453B3F;" d="M270.969,288.449c-0.089,0.091-0.089,0.232,0,0.32c0.086,0.089,0.231,0.089,0.32,0
					c0.09-0.088,0.088-0.229,0-0.32C271.2,288.362,271.055,288.362,270.969,288.449z"/>
				<path style="fill:#453B3F;" d="M269.443,288.315c-0.166,0.162-0.166,0.426,0,0.586c0.162,0.166,0.426,0.166,0.59,0
					c0.162-0.16,0.162-0.424,0-0.589C269.869,288.149,269.605,288.149,269.443,288.315z"/>
				<path style="fill:#453B3F;" d="M270.113,287.595c-0.092,0.087-0.092,0.232,0,0.321c0.088,0.085,0.233,0.086,0.318,0
					c0.09-0.089,0.088-0.234,0-0.321C270.347,287.507,270.202,287.507,270.113,287.595z"/>
				<path style="fill:#453B3F;" d="M271.138,287.368c-0.06,0.06-0.06,0.158,0,0.217c0.06,0.059,0.155,0.059,0.218,0
					c0.061-0.059,0.061-0.157,0-0.217C271.293,287.306,271.197,287.306,271.138,287.368z"/>
				<path style="fill:#453B3F;" d="M269.873,286.606c-0.079,0.079-0.079,0.209,0,0.288s0.206,0.079,0.289,0
					c0.078-0.079,0.078-0.209,0-0.288C270.079,286.528,269.952,286.528,269.873,286.606z"/>
				<path style="fill:#453B3F;" d="M268.751,287.358c-0.092,0.092-0.092,0.238,0,0.332c0.09,0.088,0.237,0.088,0.328,0
					c0.09-0.094,0.09-0.24,0-0.332C268.988,287.267,268.841,287.267,268.751,287.358z"/>
				<g>
					<path style="fill:#453B3F;" d="M263.752,285.724c0,0-0.105-0.094-0.306-0.228c-0.185-0.152-0.495-0.309-0.843-0.521
						c-0.176-0.103-0.387-0.179-0.598-0.278c-0.212-0.098-0.435-0.199-0.681-0.267c-0.241-0.077-0.491-0.157-0.745-0.238
						c-0.254-0.08-0.529-0.094-0.795-0.144c-0.266-0.044-0.531-0.11-0.795-0.138c-0.268-0.005-0.531-0.01-0.785-0.015
						c-0.255-0.002-0.502-0.017-0.736-0.028c-0.234,0.001-0.453,0.045-0.658,0.063c-0.815,0.089-1.375,0.12-1.375,0.12
						s0.53-0.145,1.35-0.321c0.206-0.037,0.427-0.102,0.665-0.125c0.241-0.007,0.494-0.014,0.757-0.021
						c0.263-0.003,0.535-0.005,0.811-0.008c0.275,0.021,0.553,0.079,0.83,0.118c0.275,0.061,0.559,0.083,0.82,0.174
						c0.262,0.093,0.52,0.183,0.768,0.271c0.256,0.072,0.477,0.205,0.686,0.324c0.208,0.122,0.415,0.219,0.587,0.341
						C263.405,285.282,263.752,285.724,263.752,285.724z"/>
				</g>
				<g>
					<g>
						<path style="fill:#453B3F;" d="M263.365,285.992c0,0-0.123-0.065-0.351-0.148c-0.216-0.104-0.554-0.184-0.941-0.307
							c-0.195-0.059-0.418-0.083-0.646-0.13c-0.229-0.045-0.47-0.092-0.725-0.099c-0.254-0.019-0.516-0.037-0.781-0.056
							c-0.265-0.018-0.535,0.034-0.805,0.048c-0.27,0.02-0.542,0.018-0.806,0.054c-0.261,0.059-0.518,0.115-0.766,0.171
							c-0.248,0.058-0.491,0.102-0.723,0.146c-0.228,0.057-0.429,0.151-0.624,0.217c-0.772,0.277-1.308,0.44-1.308,0.44
							s0.481-0.266,1.235-0.631c0.191-0.084,0.391-0.198,0.617-0.277c0.231-0.063,0.477-0.13,0.728-0.2
							c0.256-0.064,0.52-0.131,0.787-0.198c0.272-0.045,0.555-0.054,0.834-0.081c0.281-0.006,0.563-0.051,0.838-0.024
							c0.276,0.028,0.547,0.056,0.81,0.082c0.264,0.01,0.51,0.087,0.742,0.153c0.232,0.069,0.455,0.115,0.65,0.192
							C262.924,285.646,263.365,285.992,263.365,285.992z"/>
					</g>
				</g>
				<g>
					<g>
						<path style="fill:#453B3F;" d="M262.326,286.114c0,0-0.139-0.018-0.381-0.013c-0.239-0.021-0.582,0.027-0.988,0.052
							c-0.203,0.016-0.42,0.072-0.649,0.111c-0.23,0.04-0.471,0.083-0.712,0.168c-0.242,0.074-0.493,0.15-0.748,0.229
							c-0.254,0.078-0.487,0.225-0.733,0.334c-0.244,0.116-0.499,0.212-0.732,0.341c-0.222,0.147-0.441,0.293-0.653,0.435
							c-0.21,0.143-0.422,0.271-0.621,0.395c-0.191,0.135-0.346,0.296-0.504,0.427c-0.619,0.537-1.062,0.882-1.062,0.882
							s0.353-0.421,0.926-1.033c0.147-0.147,0.292-0.326,0.475-0.482c0.194-0.142,0.398-0.293,0.608-0.448
							c0.215-0.151,0.438-0.309,0.662-0.468c0.238-0.141,0.499-0.25,0.75-0.377c0.26-0.107,0.506-0.249,0.773-0.324
							c0.268-0.072,0.529-0.145,0.785-0.214c0.25-0.087,0.506-0.103,0.747-0.124c0.241-0.019,0.466-0.057,0.677-0.054
							C261.79,285.948,262.326,286.114,262.326,286.114z"/>
					</g>
				</g>
				<g>
					<path style="fill:#453B3F;" d="M271.301,285.724c0,0,0.347-0.441,1.043-0.921c0.171-0.121,0.377-0.219,0.586-0.341
						c0.21-0.119,0.43-0.252,0.686-0.324c0.248-0.087,0.506-0.178,0.767-0.271c0.262-0.091,0.545-0.113,0.819-0.174
						c0.279-0.039,0.556-0.098,0.83-0.118c0.276,0.003,0.548,0.005,0.81,0.008c0.263,0.008,0.516,0.015,0.756,0.021
						c0.238,0.023,0.459,0.088,0.664,0.125c0.819,0.177,1.35,0.321,1.35,0.321s-0.56-0.031-1.375-0.12
						c-0.203-0.018-0.423-0.061-0.656-0.063c-0.235,0.012-0.482,0.026-0.736,0.028c-0.254,0.005-0.518,0.01-0.784,0.015
						c-0.265,0.027-0.529,0.094-0.796,0.138c-0.265,0.051-0.539,0.064-0.793,0.144c-0.254,0.081-0.504,0.161-0.744,0.238
						c-0.247,0.067-0.469,0.17-0.682,0.267c-0.21,0.1-0.42,0.177-0.597,0.278c-0.349,0.212-0.657,0.368-0.842,0.521
						C271.405,285.63,271.301,285.724,271.301,285.724z"/>
				</g>
				<g>
					<g>
						<path style="fill:#453B3F;" d="M271.684,285.992c0,0,0.441-0.347,1.23-0.648c0.195-0.077,0.419-0.123,0.65-0.192
							c0.232-0.066,0.478-0.143,0.742-0.153c0.264-0.026,0.534-0.054,0.81-0.082c0.275-0.026,0.557,0.019,0.838,0.024
							c0.279,0.027,0.563,0.036,0.834,0.081c0.268,0.067,0.531,0.134,0.787,0.198c0.252,0.069,0.497,0.137,0.728,0.2
							c0.227,0.079,0.426,0.193,0.617,0.277c0.754,0.365,1.235,0.631,1.235,0.631s-0.536-0.163-1.308-0.44
							c-0.194-0.065-0.396-0.16-0.624-0.217c-0.231-0.044-0.475-0.088-0.722-0.146c-0.249-0.056-0.506-0.112-0.767-0.171
							c-0.264-0.035-0.536-0.033-0.806-0.054c-0.27-0.014-0.54-0.066-0.805-0.048c-0.266,0.019-0.527,0.037-0.781,0.056
							c-0.255,0.007-0.495,0.054-0.725,0.099c-0.228,0.047-0.45,0.071-0.646,0.13c-0.388,0.123-0.726,0.202-0.941,0.307
							C271.807,285.927,271.684,285.992,271.684,285.992z"/>
					</g>
				</g>
				<g>
					<g>
						<path style="fill:#453B3F;" d="M272.724,286.114c0,0,0.536-0.166,1.382-0.163c0.21-0.003,0.435,0.035,0.676,0.054
							c0.24,0.021,0.497,0.037,0.748,0.124c0.254,0.069,0.518,0.142,0.785,0.214c0.267,0.075,0.512,0.218,0.772,0.324
							c0.251,0.127,0.513,0.236,0.749,0.376c0.227,0.159,0.448,0.316,0.662,0.469c0.212,0.155,0.416,0.306,0.609,0.448
							c0.182,0.155,0.327,0.334,0.475,0.482c0.572,0.612,0.926,1.033,0.926,1.033s-0.441-0.345-1.062-0.882
							c-0.157-0.131-0.313-0.292-0.504-0.427c-0.2-0.124-0.411-0.253-0.621-0.396c-0.212-0.141-0.431-0.286-0.653-0.435
							c-0.232-0.128-0.488-0.225-0.732-0.34c-0.246-0.109-0.48-0.256-0.733-0.335c-0.255-0.077-0.506-0.153-0.748-0.228
							c-0.241-0.085-0.481-0.128-0.712-0.168c-0.229-0.039-0.446-0.096-0.649-0.111c-0.407-0.024-0.749-0.072-0.989-0.052
							C272.863,286.097,272.724,286.114,272.724,286.114z"/>
					</g>
				</g>
			</g>
		</g>
	</g>
	<g>
		<path style="fill:#a46167;" d="M107.221,350.166c0,3.906,16.318,7.071,36.448,7.071c20.133,0,36.452-3.165,36.452-7.071
			c0-3.906-16.319-7.07-36.452-7.07C123.539,343.096,107.221,346.26,107.221,350.166z"/>
		<g>
			<g>
				<g>
					<path style="fill:#250100;" d="M129.95,290.891c-3.719-2.487-8.244-3.803-12.508-1.852c-3.069,1.404-4.945,4.043-5.631,7.271
						c-1.046,4.888,0.264,13.216,6.405,13.93c2.75,0.32,2.783,4.674,0,4.349c-9.272-1.078-12.033-11.099-10.665-19.094
						c0.764-4.458,3.672-8.188,7.691-10.211c5.55-2.792,11.92-1.48,16.902,1.853C134.463,288.686,132.289,292.456,129.95,290.891
						L129.95,290.891z"/>
				</g>
				<path style="fill:#8B5128;" d="M109.385,338.801l3.88-3.93c4.591-5.664,1.871-10.393,1.871-10.393
					c-0.867-0.818-1.548-1.682-2.073-2.572c-0.503-2.944-0.098-6.221,0.582-8.762c0.714-2.67,2.004-4.996,3.923-6.992
					c0.388-0.402,0.785-0.79,1.192-1.175c-0.004,0.023-0.007,0.039-0.007,0.039c24.757,1.402,39.911-6.565,39.911-6.565
					l8.172,30.736c-15.928,3.465-37.493,0.281-37.493,0.281c1.224,9.077-14.585,10.839-14.585,10.839l-1.417,5.41
					c2.088-2.128,4.177-0.532,4.177-0.532c4.472,2.394,0.597,5.319,0.597,5.319h-6.266l-3.178-5.587
					C105.287,340.13,109.385,338.801,109.385,338.801z"/>
				<g>
					<path style="fill:#B06838;" d="M166.836,330.329c-15.928,3.889-33.409-2.272-33.409-2.272
						c1.229,10.18-14.585,12.155-14.585,12.155l2.089,6.066c2.086-2.385,4.174-0.596,4.174-0.596
						c4.475,2.684,0.599,5.967,0.599,5.967h-6.263l-4.583-6.264c-3.383-5.371-1.385-6.861-1.385-6.861l3.876-4.41
						c0.896-2.922-2.491-6.926-2.491-6.926c-8.77-9.273,0.111-20.926,0.121-20.936c3.046-3.925,6.62-6.674,11.613-7.407
						c6.915-1.021,13.862,0.204,20.826-0.991c4.519-0.776,9.015-1.949,13.267-3.674c0.492-0.198,1.531-0.923,2.067-0.911
						c0.017,0,13.708,0.34,14.855,17.788C177.607,311.058,177.808,327.231,166.836,330.329z"/>
					<path style="fill:#B06838;" d="M113.473,338.525l3.876-4.41c0.896-2.922-2.491-6.926-2.491-6.926
						c-8.77-9.273,0.111-20.926,0.121-20.936c3.046-3.925,6.62-6.674,11.613-7.407c6.915-1.021,13.862,0.204,20.826-0.991
						c4.519-0.776,9.015-1.949,13.267-3.674c0.492-0.198,1.531-0.923,2.067-0.911c0.003,0,0.75,0.021,1.912,0.271
						c-1.213,1.58-3.144,2.397-4.989,3.044c-1.884,0.658-3.747,1.32-5.596,2.074c-4.545,1.853-9.192,3.886-14.141,4.298
						c-4.496,0.373-8.972-0.743-13.454-0.196c-3.815,0.469-6.817,2.715-8.809,5.941c-2.733,4.43-4.481,10.925-1.511,15.648
						c1.516,2.408,4.061,4.925,3.944,7.989c-0.097,2.502-2.264,3.848-3.448,5.826c-1.261,2.102-1.175,4.45-0.238,6.677
						c0.854,2.032,2.35,4.391,4.674,4.917c1.492,0.34,3.419-0.072,4.044-1.658c0.483-1.232-0.088-2.214-0.977-2.917
						c0.575,0.188,0.94,0.5,0.94,0.5c4.475,2.684,0.599,5.967,0.599,5.967h-6.263l-4.583-6.264
						C111.475,340.016,113.473,338.525,113.473,338.525z"/>
				</g>
				<path style="fill:#8B5128;" d="M164.712,309.45h19.247c1.575,15.813-6.111,19.27-6.111,19.27l1.351,14.464v2.18
					c0,0,3.234-0.576,3.83,2.305c1.172,4.051-6.242,2.574-6.242,2.574c-3.54,0.328-3.042-4.496-3.042-4.496
					c0.626-7.685-2.364-21.09-2.364-21.09C166.858,318.851,164.989,313.783,164.712,309.45z"/>
				<path style="fill:#B06838;" d="M181.259,291.5c11.559,31.656-7.645,37.466-7.645,37.466l-0.479,15.364v2.178
					c0,0,3.234-0.575,3.83,2.308c1.172,4.046-6.243,2.571-6.243,2.571c-3.538,0.33-3.042-4.493-3.042-4.493
					c0.625-7.686-2.363-21.091-2.363-21.091c-17.796-22.862,5.452-34.303,5.452-34.303s1.349-0.727,3.661-1.041l-0.006-0.11
					c0.561-0.034,1.089-0.037,1.59-0.022c0.498-0.015,1.027-0.012,1.584,0.022l-0.005,0.11
					C179.907,290.773,181.259,291.5,181.259,291.5"/>
				<path style="fill:#B06838;" d="M159.144,313.866c2.788,4.318,5.985,8.337,10.296,11.213c-1.894,2.282-1.206,6.189-0.84,8.839
					c0.251,1.826,0.616,3.657,0.739,5.498c0.108,1.566-0.152,3.114-0.24,4.675c-0.08,1.501-0.223,3.375,0.689,4.674
					c0.651,0.926,1.998,1.127,3.033,0.964c1.07-0.17,2.289-0.635,2.809-1.658c0.221-0.428,0.179-0.824,0-1.177
					c0.6,0.335,1.129,0.917,1.336,1.922c1.172,4.046-6.243,2.571-6.243,2.571c-3.538,0.33-3.042-4.493-3.042-4.493
					c0.625-7.686-2.363-21.091-2.363-21.091C161.892,321.399,159.985,317.421,159.144,313.866z"/>
				<path style="fill:#a66839;" d="M178.88,310.334c-3.305,1.081-7.855,1.081-11.166-0.021c-4.936-1.642-8.159-6.21-9.892-10.892
					c3.593-5.639,9.326-8.459,9.326-8.459s1.349-0.728,3.662-1.042l-0.005-0.109c0.557-0.035,1.086-0.039,1.586-0.023
					c0.501-0.016,1.031-0.012,1.588,0.023l-0.006,0.109c2.314,0.314,3.664,1.042,3.664,1.042s5.734,3.707,7.3,13.994
					C183.222,307.287,181.863,309.356,178.88,310.334z"/>
				<g>
					<g>
						<path style="fill:#371611;" d="M118.598,340.21c1.691-0.186,3.349-0.589,4.964-1.079c1.613-0.506,3.174-1.178,4.599-2.063
							c1.427-0.878,2.688-2.029,3.579-3.43c0.219-0.353,0.429-0.71,0.598-1.089c0.182-0.372,0.318-0.767,0.444-1.16
							c0.118-0.398,0.22-0.801,0.279-1.214c0.091-0.406,0.088-0.827,0.136-1.241l0.002-0.021c0.088-0.819,0.025-1.691-0.135-2.521
							c-0.166-0.835-0.455-1.647-0.868-2.395c-0.821-1.501-2.112-2.736-3.63-3.582c1.552,0.763,2.977,1.909,3.867,3.446
							c0.452,0.759,0.781,1.592,0.982,2.454c0.201,0.866,0.284,1.747,0.193,2.656l0.002-0.021c-0.045,0.431-0.037,0.867-0.127,1.294
							c-0.058,0.431-0.16,0.853-0.278,1.272c-0.128,0.414-0.267,0.83-0.454,1.224c-0.172,0.4-0.389,0.779-0.614,1.152
							c-0.954,1.464-2.284,2.643-3.759,3.529c-1.469,0.91-3.096,1.511-4.738,1.974C121.993,339.853,120.295,340.112,118.598,340.21z
							"/>
					</g>
				</g>
				<path style="opacity:0.2;fill:#FFFFFF;" d="M120.033,322.389c-1.297-2.2-2.703-3.236-2.775-6.014
					c-0.094-3.466,0.835-7.233,3.731-9.42c3.269-2.469,8.045-2.374,11.931-2.155c4.027,0.225,8.466,1.414,12.463,0.496
					c3.55-0.816,6.833-2.255,9.959-4.105c1.655-0.978,3.27-2.021,4.892-3.055c1.458-0.93,2.913-1.931,4.61-2.371
					c2.287-0.594,4.416-0.31,6.353,0.522c3.014,2.459,5.811,6.7,6.377,14.008c-0.064,0.058-0.104,0.144-0.092,0.264
					c0.153,1.605-0.027,3.251-0.434,4.808c-0.686,2.633-2.307,6.43-5.663,6.084c-2.967-0.304-5.721-2.846-7.58-5.021
					c-1.333-1.561-2.319-4.297-4.3-5.177c-1.917-0.852-3.164,0.934-3.443,2.646c-0.375,2.296,0.279,4.079,1.296,6.113
					c1.147,2.273,2.541,4.953-0.521,6.332c-2.587,1.16-5.729,1.171-8.502,0.895c-2.64-0.266-5.755-0.732-7.621-2.819
					c-2.933-3.28-3.717-9.167-8.87-9.937c-1.633-0.243-3.646-0.07-4.881,1.175c-1.323,1.336-1.206,3.236-0.325,4.802
					c0.676,1.202,1.656,2.113,2.45,3.225c1,1.403,1.367,3.076,1.035,4.779c-0.365,1.86-1.232,3.648-2.6,4.992
					c-0.571,0.563-1.406,1.352-2.276,1.328c-1.169-0.03-1.846-0.951-1.874-2.038c-0.076-2.526,0.921-4.965-0.783-7.196
					C121.768,324.473,120.726,323.559,120.033,322.389z"/>
				<g>
					<path style="fill:#250100;" d="M186.227,277.813l1.77,3.295c0,0,2.06-0.946,3.603,0.35c3.292,2.765,2.271,12.477,2.271,12.477
						c-1.583,8.178,6.109,7.214,6.109,7.214c5.259-0.875,4.088-7.445,4.088-7.445c-0.877-8.953-3.594-14.882-10.911-16.842
						C193.156,276.861,189.421,275.468,186.227,277.813z"/>
					<path style="fill:#250100;" d="M161.297,277.813l-1.772,3.295c0,0-2.059-0.946-3.604,0.35
						c-3.292,2.765-2.268,12.477-2.268,12.477c1.584,8.178-6.11,7.214-6.11,7.214c-5.259-0.875-4.087-7.445-4.087-7.445
						c0.876-8.953,3.594-14.882,10.91-16.842C154.365,276.861,158.102,275.468,161.297,277.813z"/>
					<path style="fill:#B06838;" d="M157.095,293.403c0,9.25,7.094,15.282,16.346,15.282l0,0c9.252,0,17.152-6.032,17.152-15.282
						v-4.384c0-9.251-7.498-16.75-16.748-16.75l0,0c-9.251,0-16.75,7.499-16.75,16.75V293.403z"/>
					<path style="opacity:0.2;fill:#926753;" d="M188.144,295.79c-2.26-1.768-5.046-2.378-7.646-3.456
						c-1.281-0.529-2.597-1.204-3.492-2.294c-1.143-1.395-1.444-3.194-1.401-4.955c0.056-2.324,0.42-5.146,1.699-7.155
						c0.974-1.537,2.401-2.71,3.5-4.146c5.776,2.642,9.79,8.467,9.79,15.236v4.384c0,1.594-0.239,3.089-0.674,4.477
						C189.509,297.115,188.929,296.408,188.144,295.79z"/>
					<path style="opacity:0.2;fill:#926753;" d="M172.12,285.359c-0.108,1.81-0.371,4.037-1.643,5.457
						c-0.877,0.983-2.015,1.551-3.277,1.889c-2.375,0.64-5.072,0.681-7.215,2.012c-1.043,0.649-1.82,1.539-2.44,2.554
						c-0.294-1.215-0.45-2.505-0.45-3.867v-4.384c0-7.148,4.479-13.246,10.782-15.651
						C170.377,276.882,172.387,280.933,172.12,285.359z"/>
					<path style="fill:#C5B0A0;" d="M184.442,301.47L184.442,301.47c-0.723,5.138-1.637,6.372-5.92,7.216h-9.358
						c-3.32,0-5.921-3.229-5.921-7.216l0,0c0,0,0.231-8.776,10.605-8.983C173.849,292.486,183.257,291.83,184.442,301.47z"/>
					<g>
						<g>
							<path style="fill:#371611;" d="M170.738,296.689c0,0,0.556-0.943,3.107-0.883c2.548-0.061,3.105,0.883,3.105,0.883
								c0.506,0.535,0.682,1.471,0.364,2.153c0,0-0.993,1.555-2.536,2.176c0,0-0.539,0.235-0.926,0.246v0.002
								c-0.004,0-0.008,0-0.008,0c-0.003,0-0.007,0-0.009,0v-0.002c-0.386-0.011-0.925-0.246-0.925-0.246
								c-1.545-0.621-2.536-2.176-2.536-2.176C170.058,298.16,170.232,297.225,170.738,296.689z"/>
							<path style="opacity:0.5;fill:#FFFFFF;" d="M171.658,297.482c-0.013-0.092-0.016-0.184-0.007-0.28
								c0.07-0.682,0.888-1.163,1.55-1.006c0.751,0.18,1.547,1.155,1.278,1.964c-0.221,0.676-0.859,0.982-1.525,0.722
								C172.374,298.654,171.749,298.13,171.658,297.482z"/>
							<path style="opacity:0.5;fill:#FFFFFF;" d="M171.991,297.31c0.049-0.481,0.625-0.819,1.091-0.71
								c0.002,0.002,0.005,0.002,0.005,0.002c-0.228,0.108-0.426,0.279-0.55,0.513c-0.224,0.417-0.055,0.868,0.317,1.128
								c0.223,0.155,0.503,0.26,0.76,0.218c-0.199,0.116-0.447,0.138-0.703,0.038c-0.411-0.16-0.855-0.531-0.918-0.99
								C171.984,297.443,171.983,297.379,171.991,297.31z"/>
							<path style="fill:#BCBEC0;" d="M170.738,296.689c0,0,0.093-0.152,0.365-0.33c-0.251,0.586-0.312,1.214,0.063,1.859
								c0.435,0.746,1.224,1.411,2.124,1.47c0.959,0.061,1.743-0.58,1.919-1.524c0.173-0.933-0.449-1.836-1.199-2.357
								c2.402-0.014,2.939,0.883,2.939,0.883c0.506,0.535,0.682,1.471,0.364,2.153c0,0-0.993,1.555-2.536,2.176
								c0,0-0.539,0.235-0.926,0.246v0.002c-0.004,0-0.008,0-0.008,0c-0.003,0-0.007,0-0.009,0v-0.002
								c-0.386-0.011-0.925-0.246-0.925-0.246c-1.545-0.621-2.536-2.176-2.536-2.176
								C170.058,298.16,170.232,297.225,170.738,296.689z"/>
							<path style="fill:#BCBEC0;" d="M170.599,296.867c-0.07,0.491-0.019,0.984,0.224,1.452c0.558,1.071,1.59,1.72,2.804,1.658
								c1.059-0.05,1.947-0.95,1.986-2.017c0.035-0.912-0.384-1.689-1.096-2.142c1.975,0.101,2.434,0.87,2.434,0.87
								c0.506,0.535,0.682,1.471,0.364,2.153c0,0-0.993,1.555-2.536,2.176c0,0-0.539,0.235-0.926,0.246v0.002
								c-0.004,0-0.008,0-0.008,0c-0.003,0-0.007,0-0.009,0v-0.002c-0.386-0.011-0.925-0.246-0.925-0.246
								c-1.545-0.621-2.536-2.176-2.536-2.176C170.091,298.228,170.204,297.414,170.599,296.867z"/>
						</g>
						
							<line style="fill:none;stroke:#371611;stroke-width:0.4941;stroke-miterlimit:10;" x1="173.78" y1="304.162" x2="173.78" y2="300.582"/>
						<g>
							<path style="fill:#371611;" d="M177.599,302.417c-0.008-0.003,0.059,0.142-0.006,0.4c-0.018,0.136-0.09,0.276-0.195,0.433
								c-0.082,0.181-0.27,0.283-0.44,0.441c-0.184,0.137-0.414,0.217-0.646,0.338c-0.235,0.113-0.499,0.152-0.77,0.223
								c-0.542,0.156-1.126,0.119-1.71,0.18c-0.573,0.016-1.177-0.04-1.715-0.173c-0.542-0.125-1.028-0.354-1.395-0.62
								c-0.181-0.14-0.331-0.282-0.438-0.435c-0.124-0.135-0.173-0.296-0.241-0.402c-0.084-0.245-0.11-0.385-0.11-0.385
								s0.074,0.121,0.204,0.332c0.088,0.088,0.158,0.219,0.298,0.315c0.122,0.112,0.284,0.207,0.454,0.314
								c0.18,0.094,0.383,0.178,0.605,0.247c0.227,0.063,0.467,0.115,0.72,0.159c0.511,0.078,1.051,0.124,1.617,0.097
								c0.277-0.012,0.556-0.023,0.829-0.035c0.275-0.008,0.545-0.011,0.794-0.069c0.247-0.055,0.511-0.051,0.728-0.126
								c0.213-0.08,0.44-0.125,0.613-0.222c0.15-0.12,0.353-0.175,0.444-0.308c0.117-0.113,0.212-0.223,0.251-0.337
								C177.605,302.572,177.599,302.417,177.599,302.417z"/>
						</g>
					</g>
					<g>
						<g>
							<path style="fill:#A7A9AC;" d="M179.632,288.898c0,1.466,1.189,2.654,2.653,2.654c1.467,0,2.652-1.189,2.652-2.654
								c0-1.465-1.186-2.654-2.652-2.654C180.821,286.244,179.632,287.434,179.632,288.898z"/>
							<path style="fill:#18202B;" d="M179.973,288.898c0,1.277,1.034,2.314,2.313,2.314s2.313-1.037,2.313-2.314
								c0-1.276-1.035-2.311-2.313-2.311S179.973,287.622,179.973,288.898z"/>
							<path style="fill:#161E28;" d="M180.852,288.898c0,0.794,0.644,1.433,1.434,1.433c0.792,0,1.435-0.639,1.435-1.433
								c0-0.792-0.643-1.434-1.435-1.434C181.495,287.465,180.852,288.106,180.852,288.898z"/>
							<g>
								<path style="fill:#FFFFFF;" d="M183.001,287.977c0,0.394,0.324,0.715,0.719,0.715c0.396,0,0.717-0.321,0.717-0.715
									c0-0.397-0.32-0.718-0.717-0.718C183.325,287.259,183.001,287.579,183.001,287.977z"/>
								<path style="fill:#FFFFFF;" d="M182.45,288.818c0,0.195,0.16,0.354,0.355,0.354c0.195,0,0.356-0.159,0.356-0.354
									c0-0.198-0.161-0.357-0.356-0.357C182.61,288.461,182.45,288.62,182.45,288.818z"/>
							</g>
						</g>
						<g>
							<path style="fill:#A7A9AC;" d="M168.056,288.898c0,1.466-1.188,2.654-2.651,2.654c-1.467,0-2.652-1.189-2.652-2.654
								c0-1.465,1.186-2.654,2.652-2.654C166.867,286.244,168.056,287.434,168.056,288.898z"/>
							<path style="fill:#18202B;" d="M167.714,288.898c0,1.277-1.032,2.314-2.31,2.314c-1.278,0-2.314-1.037-2.314-2.314
								c0-1.276,1.036-2.311,2.314-2.311C166.682,286.587,167.714,287.622,167.714,288.898z"/>
							<path style="fill:#161E28;" d="M166.836,288.898c0,0.794-0.642,1.433-1.432,1.433c-0.792,0-1.434-0.639-1.434-1.433
								c0-0.792,0.643-1.434,1.434-1.434C166.194,287.465,166.836,288.106,166.836,288.898z"/>
							<g>
								<path style="fill:#FFFFFF;" d="M164.688,287.977c0,0.394-0.323,0.715-0.718,0.715c-0.396,0-0.717-0.321-0.717-0.715
									c0-0.397,0.32-0.718,0.717-0.718C164.364,287.259,164.688,287.579,164.688,287.977z"/>
								<path style="fill:#FFFFFF;" d="M165.239,288.818c0,0.195-0.16,0.354-0.357,0.354c-0.194,0-0.355-0.159-0.355-0.354
									c0-0.198,0.161-0.357,0.355-0.357C165.079,288.461,165.239,288.62,165.239,288.818z"/>
							</g>
						</g>
					</g>
					<g>
						<g>
							<path style="fill:#53382A;" d="M183.001,297.07c0,0-0.152-0.303-0.519-0.748c-0.356-0.451-0.962-1.013-1.78-1.523
								c-0.819-0.51-1.865-0.944-3.039-1.212c-0.588-0.133-1.201-0.243-1.836-0.295c-0.629-0.089-1.28-0.081-1.928-0.104
								c-1.281-0.022-2.572,0.17-3.74,0.46c-1.17,0.297-2.214,0.739-3.041,1.242c-0.822,0.509-1.45,1.045-1.831,1.479
								c-0.39,0.427-0.589,0.7-0.589,0.7s0.037-0.075,0.105-0.217c0.066-0.144,0.17-0.352,0.33-0.601
								c0.319-0.494,0.84-1.191,1.658-1.831c0.807-0.646,1.893-1.229,3.125-1.612c1.231-0.396,2.602-0.612,3.985-0.607
								c0.684,0.034,1.366,0.04,2.037,0.144c0.672,0.065,1.324,0.235,1.946,0.405c1.242,0.359,2.34,0.935,3.143,1.59
								c0.814,0.648,1.316,1.364,1.611,1.875C182.931,296.736,183.001,297.07,183.001,297.07z"/>
						</g>
					</g>
				</g>
			</g>
		</g>
	</g>
	<g>
		<path style="fill:#a46167;" d="M321.449,341.313c0,1.758-5.209,3.186-11.633,3.186c-6.43,0-11.637-1.428-11.637-3.186
			c0-1.759,5.207-3.183,11.637-3.183C316.24,338.13,321.449,339.555,321.449,341.313z"/>
		<g>
			<g>
				<path style="fill:#FAB58F;" d="M303.33,340.084c0,0-0.191,0.411,0.107,0.573c0,0,0.128,0.102,0.39,0
					c0,0-0.556,0.232-0.361,0.493c0,0,0.034,0.229,0.49,0c0,0-0.456,0.326-0.193,0.571c0,0,0.261,0.215,0.489,0
					c0,0-0.296,0.279-0.13,0.507c0,0,0.457,0.312,0.703-0.399c0,0,1.52-0.883,2.869-1.693c0,0,0.643-0.326,0.44-0.69l-1.527-0.229
					C306.605,339.217,304.617,339.373,303.33,340.084z"/>
				<path style="fill:#D1D3D4;" d="M308.133,339.445l-1.081-0.162c0.061,0.56-0.567,1.266-1.118,1.611
					c-0.357,0.227-0.787,0.447-1.211,0.505c-0.342,0.049-0.506-0.153-0.474-0.429c-0.044-0.016-0.09-0.029-0.142-0.043
					c-0.115-0.03-0.168-0.169-0.109-0.272c0.135-0.233-0.284-0.357-0.348-0.569c-0.017-0.061-0.017-0.11-0.006-0.157
					c-0.107,0.047-0.214,0.1-0.314,0.155c0,0-0.191,0.411,0.107,0.573c0,0,0.128,0.102,0.39,0c0,0-0.556,0.232-0.361,0.493
					c0,0,0.034,0.229,0.49,0c0,0-0.456,0.326-0.193,0.571c0,0,0.261,0.215,0.489,0c0,0-0.296,0.279-0.13,0.507
					c0,0,0.457,0.312,0.703-0.399c0,0,1.52-0.883,2.869-1.693C307.693,340.136,308.336,339.81,308.133,339.445z"/>
			</g>
			<g>
				<path style="fill:#FAB58F;" d="M317.074,340.084c0,0,0.191,0.411-0.104,0.573c0,0-0.131,0.102-0.391,0
					c0,0,0.553,0.232,0.359,0.493c0,0-0.033,0.229-0.491,0c0,0,0.458,0.326,0.195,0.571c0,0-0.263,0.215-0.489,0
					c0,0,0.294,0.279,0.13,0.507c0,0-0.458,0.312-0.702-0.399c0,0-1.522-0.883-2.871-1.693c0,0-0.644-0.326-0.438-0.69l1.523-0.229
					C313.797,339.217,315.786,339.373,317.074,340.084z"/>
				<path style="fill:#D1D3D4;" d="M312.273,339.445l1.08-0.162c-0.061,0.56,0.569,1.266,1.12,1.611
					c0.355,0.227,0.786,0.447,1.208,0.505c0.342,0.049,0.506-0.153,0.473-0.429c0.044-0.016,0.09-0.029,0.142-0.043
					c0.117-0.03,0.169-0.169,0.11-0.272c-0.137-0.233,0.286-0.357,0.348-0.569c0.018-0.061,0.018-0.11,0.007-0.157
					c0.108,0.047,0.213,0.1,0.314,0.155c0,0,0.191,0.411-0.104,0.573c0,0-0.131,0.102-0.391,0c0,0,0.553,0.232,0.359,0.493
					c0,0-0.033,0.229-0.491,0c0,0,0.458,0.326,0.195,0.571c0,0-0.263,0.215-0.489,0c0,0,0.294,0.279,0.13,0.507
					c0,0-0.458,0.312-0.702-0.399c0,0-1.522-0.883-2.871-1.693C312.711,340.136,312.067,339.81,312.273,339.445z"/>
			</g>
			<path style="fill:#D7A66A;" d="M319.932,331.083c0.359,1.71,0.141,3.637-1.162,5.396c-1.257,1.721-4.379,3.275-7.252,3.411
				c-1.134,0.066-2.272,0.066-3.408,0c-2.873-0.136-5.992-1.69-7.252-3.411c-1.301-1.76-1.52-3.687-1.158-5.396
				c0.508-2.376,2.059-3.699,1.547-6.076c-0.357-1.71-0.141-3.639,1.163-5.396c1.259-1.723,2.827-3.277,5.7-3.413
				c1.137-0.068,2.274-0.068,3.408,0c2.873,0.136,4.443,1.69,5.701,3.413c1.304,1.757,1.52,3.686,1.162,5.396
				C317.869,327.384,319.42,328.707,319.932,331.083z"/>
			<!-- <path style="fill:#D1D3D4;" d="M315.846,337.736c-3.023,1.637-6.788,1.402-10.033,0.545c-2.38-0.631-4.554-2.717-4.651-5.561 -->
				c-0.09-2.539,0.689-4.851,3.032-6.039c-2.117-1.868-0.473-5.161,0.847-7.069c0.811-1.17,1.754-2.409,3.054-3.056
				c0.319-0.157,0.648-0.289,0.978-0.396c-0.321,0.007-0.643,0.019-0.963,0.038c-2.873,0.136-4.441,1.69-5.7,3.413
				c-1.304,1.757-1.521,3.686-1.163,5.396c0.512,2.377-1.039,3.7-1.547,6.076c-0.361,1.71-0.143,3.637,1.158,5.396
				c1.26,1.721,4.379,3.275,7.252,3.411c1.137,0.066,2.274,0.066,3.408,0c2.873-0.136,5.995-1.69,7.252-3.411
				c0.426-0.576,0.735-1.169,0.945-1.766C318.67,335.938,317.355,336.915,315.846,337.736z"/>
			<path style="fill:#FCF4C7;" d="M310.498,321.728c-0.091-0.011-0.186-0.017-0.279-0.021c-3.284-0.14-4.957,2.97-5.354,5.521
				c-0.193,1.25-0.135,2.482-0.1,3.741c0.048,1.626,0.076,3.476,1.219,4.831c1.128,1.339,3.287,2.184,5.138,1.762
				c1.667-0.383,2.891-1.571,3.485-3.006c0.569-1.368,0.695-2.854,0.706-4.309c0.009-1.203,0.056-2.45-0.222-3.634
				C314.562,324.329,313.324,321.988,310.498,321.728z"/>
			<g>
				<g>
					<path style="fill:#FAB58F;" d="M309.503,327.221c-0.077-0.032-0.11-0.118-0.079-0.198l0.017-0.037
						c0.032-0.078,0.12-0.113,0.198-0.08l1.129,0.479c0.077,0.031,0.188,0.1,0.141,0.221l-0.02,0.041
						c-0.031,0.073-0.16,0.071-0.234,0.041L309.503,327.221z"/>
					<path style="fill:#FAB58F;" d="M309.022,327.56c-0.072-0.04-0.098-0.129-0.058-0.203l0.022-0.039
						c0.039-0.072,0.129-0.1,0.201-0.06l1.501,0.837c0.073,0.041,0.177,0.122,0.112,0.235l-0.023,0.039
						c-0.038,0.071-0.166,0.055-0.236,0.014L309.022,327.56z"/>
					<path style="fill:#FAB58F;" d="M308.566,327.819c-0.063-0.048-0.078-0.143-0.029-0.209l0.029-0.037
						c0.051-0.064,0.144-0.078,0.21-0.028l1.372,1.032c0.066,0.049,0.157,0.144,0.079,0.246l-0.026,0.037
						c-0.049,0.066-0.174,0.031-0.24-0.017L308.566,327.819z"/>
					<path style="fill:#FAB58F;" d="M308.159,327.947l0.784,0.759c0.058,0.059,0.174,0.108,0.232,0.05l0.033-0.03
						c0.063-0.064-0.023-0.186-0.082-0.244l-0.73-0.773L308.159,327.947z"/>
					<path style="fill:#FAB58F;" d="M309.291,327.142l1.196,0.479l0.132-0.304l-1.549-0.776c0.032,0.012,0.07,0.016,0.105,0.022
						c0.176,0.015,0.344-0.022,0.496-0.109c0.083-0.042,0.219-0.118,0.209-0.228c-0.004-0.068-0.09-0.141-0.158-0.135
						c-0.23,0.012-0.451,0.029-0.672-0.022c-0.113-0.025-0.24-0.05-0.366-0.069c-0.581,0.454-0.927,1.064-0.87,1.729
						c0.126,0.105,0.266,0.203,0.408,0.293c0.388,0.378,0.694,0.661,0.694,0.661l0.21-0.2l-0.438-0.465
						c-0.005-0.059,0.061-0.031,0.061-0.031l1.094,0.771l0.192-0.265l-1.08-0.803c-0.02-0.093,0.068-0.097,0.068-0.097l1.184,0.608
						l0.154-0.283l-1.141-0.678C309.185,327.142,309.291,327.142,309.291,327.142z"/>
				</g>
				<path style="fill:#B58D59;" d="M308.785,327.063c-0.926,1.335-1.84,1.068-2.41,0.402c-1.072-1.065-3.452-1.82-4.853-2.386
					c-0.837-0.261-2.086-2.266-1.227-3.645l0,0c0.52-1.947,2.805-2.78,3.377-2.116c1.074,1.064,2.961,4.781,4.361,5.347
					C308.873,324.925,309.647,325.685,308.785,327.063L308.785,327.063z"/>
			</g>
			<g>
				<g>
					<path style="fill:#FAB58F;" d="M310.541,327.147c0.075-0.028,0.11-0.12,0.08-0.196l-0.018-0.037
						c-0.032-0.08-0.119-0.116-0.195-0.082l-1.134,0.473c-0.077,0.034-0.188,0.103-0.137,0.221l0.016,0.042
						c0.032,0.076,0.161,0.073,0.236,0.043L310.541,327.147z"/>
					<path style="fill:#FAB58F;" d="M311.023,327.486c0.07-0.04,0.096-0.13,0.055-0.203l-0.02-0.038
						c-0.041-0.073-0.133-0.099-0.206-0.059l-1.501,0.832c-0.072,0.037-0.176,0.119-0.113,0.232l0.02,0.04
						c0.042,0.072,0.167,0.054,0.239,0.016L311.023,327.486z"/>
					<path style="fill:#FAB58F;" d="M311.473,327.75c0.066-0.051,0.08-0.144,0.031-0.212l-0.027-0.036
						c-0.051-0.064-0.145-0.076-0.209-0.029l-1.377,1.028c-0.066,0.049-0.157,0.144-0.08,0.246l0.027,0.036
						c0.047,0.066,0.172,0.031,0.237-0.016L311.473,327.75z"/>
					<path style="fill:#FAB58F;" d="M311.883,327.877l-0.785,0.757c-0.061,0.061-0.177,0.108-0.234,0.051l-0.032-0.032
						c-0.064-0.064,0.021-0.187,0.079-0.242l0.734-0.772L311.883,327.877z"/>
					<path style="fill:#FAB58F;" d="M310.752,327.069l-1.197,0.472l-0.129-0.3l1.551-0.771c-0.034,0.009-0.07,0.014-0.106,0.015
						c-0.178,0.02-0.344-0.021-0.501-0.104c-0.078-0.046-0.213-0.121-0.204-0.231c0.003-0.07,0.09-0.137,0.163-0.135
						c0.225,0.012,0.447,0.032,0.669-0.018c0.112-0.025,0.237-0.05,0.366-0.07c0.579,0.457,0.923,1.07,0.862,1.732
						c-0.126,0.105-0.267,0.203-0.407,0.295c-0.389,0.375-0.697,0.656-0.697,0.656l-0.211-0.2l0.439-0.465
						c0.006-0.059-0.061-0.031-0.061-0.031l-1.094,0.767l-0.192-0.264l1.081-0.802c0.018-0.093-0.066-0.096-0.066-0.096
						l-1.184,0.605l-0.162-0.286l1.146-0.674C310.859,327.069,310.752,327.069,310.752,327.069z"/>
				</g>
				<path style="fill:#B58D59;" d="M311.258,326.991c0.922,1.339,1.838,1.075,2.409,0.41c1.075-1.058,3.458-1.807,4.86-2.371
					c0.84-0.256,2.096-2.26,1.24-3.642l0,0c-0.514-1.943-2.797-2.787-3.369-2.122c-1.076,1.06-2.978,4.77-4.382,5.33
					C311.18,324.856,310.4,325.608,311.258,326.991L311.258,326.991z"/>
			</g>
			<g>
				<g>
					<path style="fill:#D7A66A;" d="M303.153,310.64c0,0-2.29-3.361-0.285-6.701c0,0,1.637-0.361,3.306,1.974
						C306.174,305.912,303.824,308.245,303.153,310.64z"/>
					<path style="fill:#D1D3D4;" d="M303.111,304.621c0,0-1.593,2.324,0.269,5.466c0,0,0.202-1.608,1.472-2.809
						C304.852,307.278,304.852,305.153,303.111,304.621z"/>
					<path style="fill:#D1D3D4;" d="M303.111,304.621c0,0-0.23,0.347-0.418,0.94c0.352-0.287,0.82-0.307,1.025,0.289
						c0.273,0.792,0.343,1.691,0.234,2.521c-0.006,0.035-0.011,0.074-0.016,0.111c0.217-0.4,0.51-0.822,0.914-1.204
						C304.852,307.278,304.852,305.153,303.111,304.621z"/>
				</g>
				<g>
					<path style="fill:#D7A66A;" d="M316.346,310.64c0,0,2.291-3.361,0.286-6.701c0,0-1.634-0.361-3.308,1.974
						C313.324,305.912,315.676,308.245,316.346,310.64z"/>
					<path style="fill:#D1D3D4;" d="M316.389,304.621c0,0,1.594,2.324-0.27,5.466c0,0-0.199-1.608-1.47-2.809
						C314.65,307.278,314.65,305.153,316.389,304.621z"/>
					<path style="fill:#D1D3D4;" d="M316.389,304.621c0,0,0.232,0.347,0.416,0.94c-0.348-0.287-0.818-0.307-1.021,0.289
						c-0.273,0.792-0.344,1.691-0.234,2.521c0.004,0.035,0.01,0.074,0.016,0.111c-0.215-0.4-0.51-0.822-0.915-1.204
						C314.65,307.278,314.65,305.153,316.389,304.621z"/>
				</g>
				<path style="fill:#FCF4C7;" d="M318.55,313.348c-0.628-1.217-1.891-1.252-2.075-2.708c-0.709-5.572-6.658-5.825-6.658-5.825
					s-5.953,0.253-6.663,5.825c-0.185,1.456-1.446,1.491-2.073,2.708c-0.786,1.523-0.338,3.06,0.633,4.383
					c0.002,0.004,2.387,3.798,8.104,3.798c5.712,0,8.096-3.794,8.098-3.798C318.885,316.407,319.334,314.871,318.55,313.348z"/>
				<path style="fill:#D7A66A;" d="M303.76,314.65c0.927-0.134,1.792,0.161,2.714,0.137c1.364-0.036,2.007-1.408,2.3-2.583
					c0.591-2.347,0.064-4.815-0.721-7.065c-1.813,0.529-4.442,1.913-4.899,5.5c-0.185,1.456-1.446,1.491-2.073,2.708
					c-0.702,1.358-0.421,2.728,0.34,3.949C301.459,316.001,302.13,314.888,303.76,314.65z"/>
				<path style="fill:#F8F8FC;" d="M316.971,316.84c-0.779-0.737-1.963-0.589-2.947-0.439c-0.707,0.115-1.537-0.098-2.146-0.529
					c-0.634-0.452,0.366-1.388-2.073-1.388c-1.721,0-1.659,0.504-1.971,1.074c-0.293,0.53-0.758,0.882-1.36,0.964
					c-0.71,0.098-1.496-0.102-2.187,0.092c-0.93,0.261-1.805,1.653-1.236,2.543c0.008,0.015,0.014,0.027,0.018,0.042
					c1.264,1.068,3.451,2.329,6.748,2.329c4.639,0,7.085-2.507,7.84-3.445C317.541,317.612,317.33,317.176,316.971,316.84z"/>
				<path style="fill:#D7A66A;" d="M311.172,307.688c-0.223,1.708-0.434,3.721-0.408,4.103c0.064,0.941,0.379,2.085,1.316,2.528
					c0.773,0.369,1.66,0.359,2.498,0.352c1.554-0.015,3.089,0.095,4.256,1.201c0.207-0.82,0.154-1.676-0.284-2.524
					c-0.628-1.217-1.891-1.252-2.075-2.708c-0.453-3.559-3.043-4.949-4.855-5.486C311.539,305.147,311.352,306.322,311.172,307.688z
					"/>
				<g>
					<g>
						<path style="fill:#A7A9AC;" d="M308.007,311.978c0,0.754-0.608,1.36-1.36,1.36c-0.75,0-1.357-0.606-1.357-1.36
							c0-0.751,0.607-1.359,1.357-1.359C307.398,310.619,308.007,311.228,308.007,311.978z"/>
						<path style="fill:#18202B;" d="M307.834,311.978c0,0.657-0.53,1.187-1.188,1.187c-0.652,0-1.184-0.529-1.184-1.187
							c0-0.655,0.531-1.186,1.184-1.186C307.304,310.792,307.834,311.323,307.834,311.978z"/>
						<path style="fill:#161E28;" d="M307.383,311.978c0,0.407-0.33,0.735-0.736,0.735c-0.404,0-0.733-0.328-0.733-0.735
							c0-0.404,0.329-0.733,0.733-0.733C307.053,311.245,307.383,311.574,307.383,311.978z"/>
						<g>
							<path style="fill:#FFFFFF;" d="M306.282,311.507c0,0.202-0.168,0.367-0.369,0.367c-0.203,0-0.366-0.165-0.366-0.367
								c0-0.205,0.163-0.369,0.366-0.369C306.114,311.138,306.282,311.302,306.282,311.507z"/>
							<path style="fill:#FFFFFF;" d="M306.563,311.936c0,0.102-0.082,0.183-0.182,0.183c-0.099,0-0.18-0.081-0.18-0.183
								c0-0.099,0.081-0.184,0.18-0.184C306.48,311.753,306.563,311.838,306.563,311.936z"/>
						</g>
					</g>
					<g>
						<path style="fill:#A7A9AC;" d="M314.34,311.978c0,0.754-0.608,1.36-1.36,1.36c-0.751,0-1.36-0.606-1.36-1.36
							c0-0.751,0.609-1.359,1.36-1.359C313.732,310.619,314.34,311.228,314.34,311.978z"/>
						<path style="fill:#18202B;" d="M314.167,311.978c0,0.657-0.532,1.187-1.188,1.187c-0.652,0-1.184-0.529-1.184-1.187
							c0-0.655,0.532-1.186,1.184-1.186C313.635,310.792,314.167,311.323,314.167,311.978z"/>
						<path style="fill:#161E28;" d="M313.715,311.978c0,0.407-0.328,0.735-0.735,0.735c-0.403,0-0.735-0.328-0.735-0.735
							c0-0.404,0.332-0.733,0.735-0.733C313.387,311.245,313.715,311.574,313.715,311.978z"/>
						<g>
							<path style="fill:#FFFFFF;" d="M312.613,311.507c0,0.202-0.164,0.367-0.369,0.367c-0.201,0-0.366-0.165-0.366-0.367
								c0-0.205,0.165-0.369,0.366-0.369C312.449,311.138,312.613,311.302,312.613,311.507z"/>
							<path style="fill:#FFFFFF;" d="M312.897,311.936c0,0.102-0.082,0.183-0.184,0.183c-0.1,0-0.181-0.081-0.181-0.183
								c0-0.099,0.081-0.184,0.181-0.184C312.815,311.753,312.897,311.838,312.897,311.936z"/>
						</g>
					</g>
				</g>
				<g>
					
						<rect x="309.209" y="318.007" style="fill:#FFFFFF;stroke:#BCBEC0;stroke-width:0.0964;stroke-miterlimit:10;" width="0.586" height="1.347"/>
					
						<rect x="309.836" y="318.007" style="fill:#FFFFFF;stroke:#BCBEC0;stroke-width:0.0964;stroke-miterlimit:10;" width="0.585" height="1.347"/>
				</g>
				<g>
					<g>
						
							<line style="fill:none;stroke:#371611;stroke-width:0.2533;stroke-miterlimit:10;" x1="309.809" y1="317.981" x2="309.809" y2="316.149"/>
						<g>
							<path style="fill:#371611;" d="M307.851,317.09c0,0-0.007,0.079,0.052,0.188c0.021,0.059,0.07,0.115,0.131,0.173
								c0.049,0.067,0.153,0.095,0.23,0.156c0.186,0.089,0.422,0.148,0.686,0.18c0.256,0.059,0.551,0.032,0.832,0.053
								c0.292,0.017,0.565-0.007,0.828-0.049c0.128-0.028,0.252-0.056,0.369-0.081c0.109-0.046,0.215-0.088,0.31-0.127
								c0.084-0.061,0.162-0.114,0.231-0.163c0.083-0.04,0.101-0.12,0.145-0.165c0.074-0.105,0.116-0.165,0.116-0.165
								s-0.027,0.068-0.074,0.188c-0.033,0.055-0.039,0.151-0.111,0.211c-0.063,0.068-0.133,0.151-0.222,0.227
								c-0.194,0.125-0.435,0.255-0.716,0.315c-0.275,0.058-0.585,0.096-0.877,0.091c-0.3-0.035-0.598-0.021-0.876-0.095
								c-0.28-0.046-0.53-0.163-0.726-0.285c-0.087-0.081-0.182-0.134-0.224-0.227c-0.054-0.081-0.09-0.153-0.099-0.222
								C307.824,317.163,307.851,317.09,307.851,317.09z"/>
						</g>
					</g>
					<g>
						<path style="fill:#FAB592;" d="M311.08,315.452c0,0.384-0.313,0.697-0.695,0.697h-1.141c-0.387,0-0.695-0.314-0.695-0.697l0,0
							c0-0.387,0.309-0.698,0.695-0.698h1.141C310.768,314.754,311.08,315.065,311.08,315.452L311.08,315.452z"/>
						<path style="opacity:0.5;fill:#FBBA94;" d="M310.006,315.865c-0.337-0.027-0.803-0.183-0.754-0.612
							c0.029-0.27,0.246-0.43,0.488-0.499h-0.496c-0.387,0-0.695,0.311-0.695,0.698c0,0.384,0.309,0.697,0.695,0.697h1.141
							c0.329,0,0.605-0.232,0.678-0.54C310.801,315.855,310.338,315.892,310.006,315.865z"/>
						<path style="fill:#FFFFFF;" d="M310.658,315.273c0,0.156-0.227,0.285-0.506,0.285c-0.278,0-0.506-0.129-0.506-0.285
							c0-0.158,0.228-0.285,0.506-0.285C310.432,314.988,310.658,315.115,310.658,315.273z"/>
					</g>
				</g>
			</g>
		</g>
	</g>
</g>
<g>
	<path style="fill:#A1574D;" d="M409.563,311.439c0,21.869-17.727,39.596-39.596,39.596c-21.867,0-39.594-17.727-39.594-39.596
		c0-21.867,17.727-39.594,39.594-39.594C391.836,271.846,409.563,289.572,409.563,311.439z"/>
	<circle style="fill:#A1574D;" cx="360.051" cy="216.451" r="39.596"/>
	<path style="fill:#A1574D;" d="M355.023,120.959c0,21.867-17.728,39.596-39.596,39.596c-21.867,0-39.594-17.729-39.594-39.596
		c0-21.867,17.727-39.596,39.594-39.596C337.295,81.363,355.023,99.092,355.023,120.959z"/>
	<path style="fill:#A1574D;" d="M15.637,311.439c0,21.869,17.729,39.596,39.596,39.596c21.867,0,39.596-17.727,39.596-39.596
		c0-21.867-17.729-39.594-39.596-39.594C33.365,271.846,15.637,289.572,15.637,311.439z"/>
	<path style="fill:#A1574D;" d="M25.555,216.451c0,21.867,17.727,39.596,39.594,39.596c21.869,0,39.596-17.729,39.596-39.596
		c0-21.867-17.727-39.596-39.596-39.596C43.281,176.855,25.555,194.584,25.555,216.451z"/>
	<circle style="fill:#A1574D;" cx="109.771" cy="120.959" r="39.596"/>
	<path style="fill:#A1574D;" d="M257.44,81.793c0,21.867-17.727,39.596-39.594,39.596c-21.867,0-39.596-17.729-39.596-39.596
		c0-21.867,17.729-39.596,39.596-39.596C239.713,42.197,257.44,59.926,257.44,81.793z"/>
	<g>
		<path style="fill:#FFFFFF;" d="M135.545,134.551c0,3.332-2.701,6.033-6.031,6.033H90.031c-3.332,0-6.033-2.701-6.033-6.033l0,0
			c0-3.33,2.701-6.031,6.033-6.031h39.482C132.844,128.52,135.545,131.221,135.545,134.551L135.545,134.551z"/>
		<path style="fill:#FFFFFF;" d="M133.352,126.143c0,2.322-2.471,4.205-5.518,4.205H91.711c-3.049,0-5.52-1.883-5.52-4.205l0,0
			c0-2.322,2.471-4.203,5.52-4.203h36.123C130.881,121.939,133.352,123.82,133.352,126.143L133.352,126.143z"/>
		<path style="fill:#FFFFFF;" d="M128.781,119.195c0,2.324-1.99,4.205-4.447,4.205H95.211c-2.457,0-4.449-1.881-4.449-4.205l0,0
			c0-2.32,1.992-4.203,4.449-4.203h29.123C126.791,114.992,128.781,116.875,128.781,119.195L128.781,119.195z"/>
		<path style="fill:#FFFFFF;" d="M95.211,114.992c0,5.148,7.822,8.408,15.291,8.408c7.471,0,14.611-3.318,13.832-8.408
			c-2.133-13.891-13.832-8.225-11.637-24.859C99.17,94.887,95.211,109.844,95.211,114.992z"/>
	</g>
	<path style="fill:#FFFFFF;" d="M241.414,56.871c-1.951-2.652-5.682-3.223-8.334-1.274c-2.652,1.951,0.881,4.441-0.285,7.52
		c-1.096,2.891-31.504,25.242-34.59,25.424c-3.285,0.195-4.609-3.922-7.262-1.971c-2.652,1.949-3.223,5.68-1.271,8.332
		c1.33,1.811,2.787,1.473,4.232,3.363c1.443,1.889,0.615,3.232,1.945,5.043c1.949,2.652,5.68,3.223,8.332,1.273
		c2.654-1.951-0.639-5.654,1.273-8.334c2.225-3.117,28.891-22.719,32.531-23.912c3.127-1.023,5.68,3.223,8.332,1.273
		c2.652-1.949,3.223-5.682,1.273-8.334c-1.33-1.809-2.861-1.42-4.232-3.361C241.986,59.973,242.744,58.68,241.414,56.871z"/>
	<g>
		<polygon style="fill:#FFFFFF;" points="398.473,315.264 341.463,315.264 348.676,298.115 390.998,298.115 		"/>
		<rect x="339.725" y="316.191" width="60.486" height="4.635" style="fill:#FFFFFF;"/>
		<path style="fill:#FFFFFF;" d="M350.674,296.9c0.152-2.516,3.15-2.494,4.648-3.697c0.803-0.645,0.637-2.291,2.074-2.805
			c1.188-0.426,2.941,0.301,3.949,0.852c0.818-1.19,1.762-1.893,3.24-1.772c0.611,0.051,0.709,1.117,1.199,1.123
			c0.77,0.008,1.1-0.742,1.807-0.887c1.69-0.344,2.221,0.316,3.477,0.242c0.484-0.029,1.279-0.941,1.906-0.885
			c1.063,0.098,0.889,0.73,1.572,1.094c0.762,0.408,0.463,0.754,1.633,0.951c0.434,0.072,1.26-0.504,1.842-0.475
			c2.434,0.125,1.242,1.328,2.77,2.096c2.541,1.277,5.68-2.76,6.072,2.283c1.41-0.695,2.199,0.646,2.281,1.879H350.674z"/>
	</g>
	<g>
		<path style="fill:#FFFFFF;" d="M70.57,213.09c-3.996-8.248-3.855-17.441-0.41-25.23c-5.365-0.82-11.023-0.086-16.277,2.459
			c-5.658,2.74-9.965,7.15-12.617,12.348c7.803,2.324,14.646,7.785,18.465,15.672c3.82,7.889,3.865,16.642,0.848,24.207
			c5.725,1.141,11.854,0.496,17.512-2.244c5.254-2.543,9.34-6.527,12.021-11.246C81.863,226.928,74.564,221.338,70.57,213.09z"/>
		<path style="fill:#FFFFFF;" d="M74.609,188.922c-3.264,6.779-3.527,14.93,0,22.211c3.527,7.283,10.084,12.129,17.426,13.771
			c2.516-6.83,2.365-14.631-1.057-21.699C87.555,196.139,81.527,191.184,74.609,188.922z"/>
		<path style="fill:#FFFFFF;" d="M56.236,241.301c2.736-6.527,2.777-14.15-0.543-21.006c-3.32-6.855-9.326-11.553-16.145-13.451
			c-2.1,6.553-1.789,13.889,1.445,20.568C44.23,234.094,49.793,238.885,56.236,241.301z"/>
	</g>
	<g>
		<polygon style="fill:#FFFFFF;" points="65.455,314.057 44.1,293.871 42.604,295.451 58.416,310.398 51.438,317.781 
			35.625,302.834 34.131,304.416 55.486,324.603 69.566,327.928 		"/>
		<polygon style="fill:#FFFFFF;" points="74.402,333.373 60.297,320.041 61.17,319.117 75.275,332.451 80.34,338.178 		"/>
		<path style="fill:#FFFFFF;" d="M34.707,305.359c-0.51,0.539-1.391,0.533-1.969-0.014l0,0c-0.578-0.547-0.635-1.426-0.125-1.965
			l10.117-10.705c0.51-0.537,1.393-0.531,1.971,0.016l0,0c0.578,0.547,0.633,1.426,0.123,1.965L34.707,305.359z"/>
		<path style="fill:#FFFFFF;" d="M27.426,296.955c-0.432,0.455-1.25,0.383-1.828-0.164l0,0c-0.578-0.547-0.697-1.359-0.266-1.816
			l8.557-9.053c0.432-0.455,1.25-0.381,1.828,0.166l0,0c0.578,0.547,0.697,1.359,0.266,1.814L27.426,296.955z"/>
		
			<rect x="37.54" y="304.405" transform="matrix(0.6862 -0.7275 0.7275 0.6862 -209.4274 124.4652)" style="fill:#FFFFFF;" width="3.99" height="1.087"/>
		
			<rect x="40.263" y="306.979" transform="matrix(0.6871 -0.7266 0.7266 0.6871 -210.2168 126.934)" style="fill:#FFFFFF;" width="3.991" height="1.089"/>
		
			<rect x="42.988" y="309.555" transform="matrix(0.6871 -0.7266 0.7266 0.6871 -211.236 129.7198)" style="fill:#FFFFFF;" width="3.991" height="1.089"/>
		
			<rect x="45.712" y="312.129" transform="matrix(0.6871 -0.7266 0.7266 0.6871 -212.2538 132.505)" style="fill:#FFFFFF;" width="3.991" height="1.089"/>
		
			<rect x="48.437" y="314.705" transform="matrix(0.6852 -0.7284 0.7284 0.6852 -213.7389 135.9755)" style="fill:#FFFFFF;" width="3.991" height="1.088"/>
		
			<rect x="30.005" y="290.131" transform="matrix(0.6868 -0.7268 0.7268 0.6868 -203.3555 116.6553)" style="fill:#FFFFFF;" width="7.376" height="8.355"/>
	</g>
	<g>
		<path style="fill:#FFFFFF;" d="M337.094,101.996h-46.963c-2.412,0-4.367,1.955-4.367,4.369v31.125
			c0,2.412,1.955,4.369,4.367,4.369h46.963c2.412,0,4.369-1.957,4.369-4.369v-31.125
			C341.463,103.951,339.506,101.996,337.094,101.996z M323.625,125.387h-6.553v6.553h-6.918v-6.553h-6.553v-6.918h6.553v-6.553
			h6.918v6.553h6.553V125.387z"/>
		<path style="fill:#FFFFFF;" d="M302.57,144.043c0,0.705-0.57,1.274-1.273,1.274h-8.375c-0.703,0-1.273-0.568-1.273-1.274l0,0
			c0-0.703,0.57-1.273,1.273-1.273h8.375C302,142.77,302.57,143.34,302.57,144.043L302.57,144.043z"/>
		<path style="fill:#FFFFFF;" d="M335.678,144.043c0,0.705-0.57,1.274-1.275,1.274h-8.371c-0.705,0-1.275-0.568-1.275-1.274l0,0
			c0-0.703,0.57-1.273,1.275-1.273h8.371C335.108,142.77,335.678,143.34,335.678,144.043L335.678,144.043z"/>
		<path style="fill:#FFFFFF;" d="M303.178,101.996c0,0.703-0.318,1.275-0.709,1.275h-4.652c-0.391,0-0.707-0.572-0.707-1.275l0,0
			c0-0.705,0.316-1.273,0.707-1.273h4.652C302.859,100.723,303.178,101.291,303.178,101.996L303.178,101.996z"/>
		<path style="fill:#FFFFFF;" d="M329.389,101.996c0,0.703-0.316,1.275-0.707,1.275h-4.652c-0.391,0-0.709-0.572-0.709-1.275l0,0
			c0-0.705,0.318-1.273,0.709-1.273h4.652C329.072,100.723,329.389,101.291,329.389,101.996L329.389,101.996z"/>
		<path style="fill:#FFFFFF;" d="M321.621,94.715c0,0.904-0.732,1.639-1.637,1.639h-12.742c-0.904,0-1.639-0.734-1.639-1.639l0,0
			c0-0.904,0.734-1.639,1.639-1.639h12.742C320.889,93.076,321.621,93.811,321.621,94.715L321.621,94.715z"/>
		<polyline style="fill:none;stroke:#FFFFFF;stroke-width:1.9338;stroke-miterlimit:10;" points="318.893,100.357 318.893,94.715 
			308.334,94.715 308.334,100.357 		"/>
	</g>
	<g>
		<path style="fill:#FFFFFF;" d="M351.428,243.078c-3.49,0.76-5.721-12.293-5.01-19.881c1.367-14.57,15.992-14.115,21.4-10.32
			c7.565,5.307,17.15,25.346,3.707,28.189c-6.697,1.416-6.303-6.846-11.16-6.541C355.51,234.828,354.918,242.32,351.428,243.078z"/>
		<path style="fill:#FFFFFF;" d="M369.756,200.457c-1.223,4.965-5.018,8.299-8.477,7.445c-3.459-0.852-5.271-5.566-4.049-10.529
			c1.221-4.965,5.018-8.301,8.477-7.447C369.166,190.777,370.979,195.492,369.756,200.457z"/>
		<path style="fill:#FFFFFF;" d="M354.563,200.096c1.09,4.996-0.848,9.66-4.328,10.42c-3.48,0.76-7.186-2.676-8.275-7.67
			c-1.09-4.996,0.848-9.662,4.328-10.42C349.768,191.666,353.473,195.1,354.563,200.096z"/>
		<path style="fill:#FFFFFF;" d="M380.834,207.889c-1.025,4.168-4.246,6.959-7.193,6.234c-2.947-0.727-4.502-4.693-3.477-8.861
			c1.027-4.168,4.248-6.959,7.193-6.232C380.305,199.754,381.859,203.721,380.834,207.889z"/>
		<path style="fill:#FFFFFF;" d="M335.918,219.25c3.916,1.756,8.098,0.934,9.338-1.836c1.242-2.768-0.928-6.436-4.846-8.191
			c-3.916-1.756-8.098-0.934-9.338,1.836C329.83,213.828,332,217.494,335.918,219.25z"/>
	</g>
</g>
</svg>
